PathFileType	4	(X/Y/Z)	C:/Users/beibeiliu/ov580/test_trc\sequence.40_training_dense_left.trc
DataRate	CameraRate	NumFrames	NumMarkers	Units	OrigDataRate	OrigDataStartFrame	OrigNumFrames
120	120	7	19	mm	120	51	400
Frame#	Time	ThumbCMC			ThumbMCP			ThumbIP			ThumbTip			IndexMCP			IndexPIP			IndexTip			MiddleMCP			MiddlePIP			MiddleTip			RingMCP			RingPIP			RingTip			PinkyMCP			PinkyPIP			PinkyTip			BackHand1			BackHand2			BackHand3	
		X0	Y0	Z0	X1	Y1	Z1	X2	Y2	Z2	X3	Y3	Z3	X4	Y4	Z4	X5	Y5	Z5	X6	Y6	Z6	X7	Y7	Z7	X8	Y8	Z8	X9	Y9	Z9	X10	Y10	Z10	X11	Y11	Z11	X12	Y12	Z12	X13	Y13	Z13	X14	Y14	Z14	X15	Y15	Z15	X16	Y16	Z16	X17	Y17	Z17	X18	Y18	Z18	
50	0.416667	-179.483	-36.8878	51.2488	-186.952	-49.2854	20.0374	-194.409	-48.7249	-1.94865	-206.146	-43.3129	-24.0601	-157.891	-17.2382	-7.90807	-163.333	-21.8073	-36.8242	-171.528	-37.1984	-52.307	-170.594	4.05166	-15.1365	-170.713	1.85695	-42.9638	-179.778	-5.64762	-66.3246	-190.428	9.15513	-12.6802	-203.987	-7.14561	-35.4464	-217.641	-30.9293	-29.4013	-206.3	19.7644	-4.03837	-209.733	19.0888	-22.5142	-209.795	10.5256	-41.4664	-189.921	16.436	36.4288	-192.778	15.7046	59.1547	-171.746	-0.27856	48.3938	
51	0.425	-180.227	-37.7155	51.6481	-187.753	-53.1215	21.5635	-195.381	-48.3402	-1.27203	-207.1	-40.5586	-24.8607	-158.752	-15.8736	-10.0338	-162.217	-23.5573	-35.0437	-175.06	-37.1689	-54.3306	-170.115	2.98093	-14.2213	-167.782	0.230096	-39.2828	-181.338	-8.07913	-69.6219	-189.093	6.92774	-13.3824	-200.81	-9.26448	-34.1817	-217.739	-27.5008	-30.225	-208.04	21.3223	-0.736559	-208.772	16.4961	-24.9817	-210.098	6.193	-41.376	-188.674	14.7071	35.1375	-194.963	15.2824	60.147	-169.549	-2.14224	48.6252	
52	0.433333	-180.315	-33.6315	49.1657	-187.917	-49.4508	23.9675	-193.59	-48.3005	-7.2209	-206.279	-39.7878	-23.4295	-160.43	-14.0511	-8.99653	-163.009	-21.4766	-34.2059	-176.346	-35.7856	-53.3716	-170.196	5.14094	-17.7942	-168.054	0.370693	-40.1489	-177.437	-11.1601	-66.3704	-193.519	9.80705	-11.7458	-201.255	-8.5902	-33.0602	-218.468	-29.6299	-27.7315	-207.892	20.601	-1.85883	-209.171	15.7108	-25.0843	-213.931	7.90184	-45.4904	-189.156	13.9071	33.9153	-194.652	16.4711	62.9184	-169.269	-2.25169	46.8197	
53	0.441667	-180.025	-36.7737	51.248	-186.348	-49.7027	18.5252	-193.639	-49.1164	-6.48236	-205.481	-40.3954	-21.3389	-159.945	-14.3375	-8.2036	-162.539	-22.8317	-34.8546	-172.255	-35.9295	-51.3121	-167.567	1.59893	-16.7686	-169.346	-0.369718	-43.5887	-179.589	-9.68749	-66.7558	-189.487	5.86513	-13.5981	-202.356	-7.45204	-32.0613	-214.75	-29.7513	-28.2888	-204.945	18.827	-0.857461	-206.883	14.8746	-23.629	-211.167	7.71527	-42.2317	-190.961	17.2043	38.4049	-193.002	14.6625	61.3768	-168.607	-3.34544	46.9842	
54	0.45	-178.117	-36.1357	46.8289	-186.797	-49.2116	21.2484	-193.46	-49.2923	-4.88958	-205.363	-41.3976	-20.9064	-160.465	-13.8724	-9.45009	-163.505	-23.1621	-37.8035	-173.182	-35.6392	-52.03	-172.156	5.15261	-15.2537	-170.733	-1.46577	-43.6582	-179.178	-11.5797	-67.5345	-194.504	8.49088	-12.2934	-206.485	-9.12926	-33.0195	-215.553	-31.0071	-26.1986	-206.952	18.5594	-3.28961	-208.974	14.8912	-23.2433	-212.476	4.01743	-41.125	-191.269	16.4267	36.2285	-197.127	13.2207	62.0002	-171.379	-4.48189	47.9154	
55	0.458333	-179.387	-33.9759	48.1898	-185.781	-49.597	18.7713	-193.684	-47.3515	-2.58615	-205.28	-45.0698	-24.6469	-161.941	-11.6173	-7.77971	-164.901	-20.8073	-35.0542	-175.045	-35.5841	-52.4475	-171.505	3.67571	-14.8015	-170.245	-1.06826	-43.1775	-180.844	-8.41618	-64.6407	-192.526	6.75512	-10.1622	-206.055	-11.8643	-33.8403	-215.623	-32.6002	-27.1305	-209.837	18.7928	-1.30757	-209.232	14.4926	-20.664	-217.036	3.08676	-43.3378	-191.502	13.0404	36.8625	-193.857	11.6232	60.379	-171.808	-1.155	50.974	
56	0.466667	-176.027	-33.4833	47.2205	-182.694	-50.4565	20.1617	-189.909	-51.779	-3.56073	-202.294	-49.6384	-21.8752	-160.878	-11.0851	-9.97998	-163.417	-20.943	-34.0087	-172.198	-36.1377	-50.1559	-173.822	5.2147	-16.6521	-175.922	0.17731	-44.0265	-185.802	-10.7918	-67.1078	-196.084	6.63324	-9.79003	-206.798	-11.9798	-33.3375	-213.758	-36.5286	-27.8735	-211.702	14.8355	2.49185	-212.97	13.1034	-18.9055	-219.175	3.04368	-41.2184	-195.91	16.8844	33.05	-198.458	14.5829	63.2618	-172.28	-1.47652	46.7955	
